<?xml version="1.0" encoding="UTF-8"?>
<svg width="728px" height="386px" viewBox="0 0 728 386" version="1.1" xmlns="http://www.w3.org/2000/svg" xmlns:xlink="http://www.w3.org/1999/xlink">
    <!-- Generator: Sketch 50.2 (55047) - http://www.bohemiancoding.com/sketch -->
    <title>logo</title>
    <desc>Created with Sketch.</desc>
    <defs></defs>
    <g id="Page-1" stroke="none" stroke-width="1" fill="none" fill-rule="evenodd">
        <g id="logo" transform="translate(-3.000000, -4.000000)">
            <polygon id="Shape" points="0 0 659.1 0 659.1 394 0 394"></polygon>
            <path d="M650.7,196.9 C650.7,196.3 650.5,195.7 650.1,195.2 L650.1,195.1 C637.221388,183.936241 623.661962,173.582985 609.5,164.1 C607.5,162.8 605.2,165 605.7,167.1 L611.8,196.9 L605.7,226.6 C605.2,228.7 607.5,230.9 609.5,229.6 C624,220.3 636.9,209.6 650.1,198.6 C650.5,198.1 650.7,197.5 650.7,196.9" id="Shape" fill="#00687A" fill-rule="nonzero"></path>
            <path d="M330,172.6 L330.8,172.6 L331.5,172.5 C332.153388,172.02248 332.586135,171.301234 332.7,170.5 C332.9,169.7 332.7,168.9 332.3,168.3 L331.2,167.2 C330.7,166.7 330.2,166.5 329.5,166.5 C328.9,166.5 328.4,166.9 328,167.6 C327.754689,168.252225 327.554222,168.920448 327.4,169.6 C327.5,171.3 328.4,172.3 330.1,172.6 M366.8,167.2 C366.3,166.7 365.8,166.5 365.1,166.5 C364.5,166.5 364,166.9 363.6,167.6 C363.322729,168.250467 363.088883,168.918598 362.9,169.6 C363.1,171.3 363.9,172.3 365.6,172.6 L366.4,172.6 L367.1,172.5 C367.753388,172.02248 368.186135,171.301234 368.3,170.5 C368.4,169.7 368.3,168.9 367.8,168.3 C367.501531,167.90309 367.166753,167.534834 366.8,167.2" id="Shape" fill="#1B0A40" fill-rule="nonzero"></path>
            <path d="M378,189.6 C378.295606,186.380087 379.035981,183.216668 380.2,180.2 C379.480197,183.336485 378.746857,186.469847 378,189.6 Z M376.7,185.1 L376.5,185.1 L376.5,184.9 L378,180 C378.549412,178.618142 379.049726,177.217264 379.5,175.8 C379.911832,174.807807 380.379239,173.839606 380.9,172.9 L381.1,173.1 L378.1,180.1 L376.7,185.1 Z M383,173.1 C384.183119,171.105642 385.556165,169.230262 387.1,167.5 C385.673391,169.159652 384.432674,170.970429 383.4,172.9 L380.6,178.9 C380.6,178.4 380.9,177.6 381.3,176.5 L383,173.1 Z M389.4,166.5 C390.4,165.5 391.4,164.8 392.5,164.3 C393.5,163.8 394.1,164.1 394.3,165.2 C394.5,166.1 394.5,167 394.3,167.8 C394.1,168.6 393.7,169.4 393.3,170.1 C392.743624,170.867968 392.142588,171.602569 391.5,172.3 C388.82904,174.754288 385.792789,176.778455 382.5,178.3 L382.3,178.1 C382.856096,176.876635 383.38952,175.643091 383.9,174.4 C385.340022,171.483271 387.192346,168.788982 389.4,166.4 L389.4,166.5 Z M363.2,203.4 L363.1,203 L363,202.6 C363.139916,200.001689 363.239928,197.401382 363.3,194.8 L364,188.8 L364.8,182.6 C364.922551,181.598592 365.055892,180.598534 365.2,179.6 L365.4,179.6 L364.1,191.6 C363.6,195.6 363.3,199.5 363.2,203.5 L363.2,203.4 Z M362.5,192.7 C362.215984,195.692328 362.04919,198.694626 362,201.7 C361.8,201.3 361.7,200.3 361.7,198.7 C361.778278,193.519044 362.381359,188.359355 363.5,183.3 L363,188 L362.5,192.7 Z M362.6,201.4 L362.6,197.4 L362.6,201.4 Z M343.8,215.4 C343.526445,214.590331 343.226283,213.789896 342.9,213 C342.157486,210.400577 341.82019,207.702213 341.9,205 C341.737336,197.212714 342.441669,189.431506 344,181.8 L344.3,181.4 L344.3,182.4 C343.828391,186.27493 343.29499,190.142088 342.7,194 C342.165444,198.950652 342.131941,203.942619 342.6,208.9 C342.816436,211.08048 343.286272,213.228303 344,215.3 L343.8,215.3 L343.8,215.4 Z M341.1,207.2 L342.3,213.8 C341.5,211.7 341.1,209.5 341.1,207.2 Z M340.3,210.4 L339.8,206.4 L341.4,214.4 C340.9,213.1 340.5,211.7 340.3,210.4 Z M341.6,190.4 L341.4,193.4 L341.2,193.4 L341.6,190.4 Z M343.3,180.9 L342.7,183.7 L342.2,186.7 C342.027232,187.90438 341.82718,189.104689 341.6,190.3 L342.1,185.1 L342.8,181.5 L343,180.8 L343.3,180.9 Z M344.5,169.9 C346.2,164.7 348.3,159.7 350.7,154.8 L351.2,154 L352,152.4 L352.3,152 L352.5,152 L351.3,154.1 C350.374144,156.365799 349.373597,158.600354 348.3,160.8 C344.396221,169.650388 341.769967,179.010629 340.5,188.6 L340.8,185.8 C341.6,180.3 342.8,175 344.5,169.8 L344.5,169.9 Z M355.5,150.8 L356.7,149.1 C357.2,148.5 357.7,147.9 358,147.3 L358.3,147.5 C356.583799,149.863752 355.07804,152.373351 353.8,155 C351.309684,160.208902 349.106388,165.550227 347.2,171 L344.9,179.3 L344.5,179.3 L344.7,178.2 L344.9,177.2 C347.069729,167.943523 350.644516,159.074005 355.5,150.9 L355.5,150.8 Z M361.7,145.4 L362.7,144.7 L363.7,144 C364.2,143.6 364.5,143.7 364.7,144.3 C365.058737,145.315368 365.359225,146.350385 365.6,147.4 C365.849333,150.939872 365.08629,154.477616 363.4,157.6 C360.005517,164.354634 355.433993,170.449999 349.9,175.6 L348.6,176.6 L347.2,177.7 L346.9,177.9 L346.6,177.8 C347.320743,175.650343 347.987619,173.482999 348.6,171.3 C351.15833,163.477998 354.579394,155.965073 358.8,148.9 C359.7,147.6 360.6,146.5 361.8,145.4 L361.7,145.4 Z M363.8,161.3 L363.7,161.3 L364.3,159.8 L365,158.5 L365.2,158.5 L363.9,161.3 L363.8,161.3 Z M327.6,203.5 L327.5,203 L327.5,202.6 C327.608562,200.001243 327.675238,197.400906 327.7,194.8 C328.196008,189.750337 328.829576,184.715134 329.6,179.7 L329.8,179.7 C329.5,183.7 329.1,187.7 328.5,191.6 C328,195.6 327.7,199.5 327.6,203.5 Z M326.9,192.7 C326.610435,195.691908 326.443629,198.694429 326.4,201.7 C326.2,201.3 326.1,200.3 326.1,198.7 C326.214531,193.515884 326.851079,188.356496 328,183.3 C327.672028,186.433901 327.338694,189.567239 327,192.7 L326.9,192.7 Z M327,201.4 L327,197.4 L327,201.4 Z M308.8,218.4 L308.4,215.8 L308.6,215.8 L309,218.4 L308.8,218.4 Z M315.8,164.5 L315.8,165.6 C315.587582,168.285612 315.220304,170.956722 314.7,173.6 C313.254254,180.590773 311.854224,187.590923 310.5,194.6 C310.3,194.6 310.2,194.5 310.2,194.4 L315.8,164.5 Z M312,172 L313.3,165.4 L313.6,165.5 C312.730036,169.859596 311.896673,174.226417 311.1,178.6 L310.8,178.6 L312,172 Z M314.5,167.5 C313.715957,171.536482 312.915951,175.569847 312.1,179.6 L311.8,179.6 L314.2,167.5 L314.5,167.5 Z M293.5,187.4 L292.5,193.5 C292.8,189.4 293.2,185.2 293.8,181.2 L295.6,168.9 C295.553261,173.026815 295.151782,177.14197 294.4,181.2 L293.4,187.4 L293.5,187.4 Z M291.3,191.1 L293.8,171.8 L294.1,171.8 L291.5,191.1 L291.3,191.1 Z M290.5,188.8 L290.2,188.8 L292.9,168.5 C292.9,171.9 292.5,175.3 291.9,178.7 C291.3,182 290.9,185.4 290.5,188.8 Z M290,198.8 L289.8,198.8 L289.8,195.7 L290,195.7 L290,198.7 L290,198.8 Z M275,189.4 L275,186 L275,186.1 L275.1,189.4 L275,189.4 Z M274.8,192.6 L274.8,190.7 L274.9,192.6 L274.8,192.6 Z M273.5,187.3 L273.4,187.3 L273.4,184.5 L273.5,184.5 L273.5,187.3 Z M273.3,191.4 L273.3,188.7 L273.3,191.4 Z M271.5,187.1 C271.3,192 271.2,196.9 271.3,201.8 C271.1,196.8 271,192 271.2,187.1 C271.33241,182.154001 271.935126,177.23182 273,172.4 C272.200997,177.264866 271.700064,182.174017 271.5,187.1 Z M232.9,182.3 C233.4,180.8 234.4,179.3 235.7,178.1 C234.726607,179.472876 233.792888,180.873454 232.9,182.3 Z M236.6,178.8 L234.3,182.1 L234.1,182.1 L236.3,178.6 L236.6,178.8 Z M240.2,176.6 C238.018685,178.909608 236.106455,181.459247 234.5,184.2 C235.5,181.2 237.4,178.6 240.2,176.6 Z M232.8,153.7 C232.8,153.4 233,153.1 233.2,152.7 C233.810354,151.418487 234.658745,150.264674 235.7,149.3 L232.8,153.7 Z M238.2,148.2 L234.7,152.9 C235.4,151.1 236.7,149.5 238.2,148.2 Z M238,150.6 C236.724354,152.143855 235.618023,153.820114 234.7,155.6 C235.327064,153.646779 236.348105,151.842939 237.7,150.3 C239,148.8 240.5,147.5 242.3,146.3 C240.7,147.7 239.3,149.1 238,150.6 Z M257.4,145.3 L257.6,145.4 C257.132079,146.252166 256.631713,147.086109 256.1,147.9 L256.1,147.7 L257.4,145.3 Z M400.8,179.9 C399.381093,181.752411 397.981021,183.619174 396.6,185.5 L392.6,190.4 C390.354342,192.843823 387.838193,195.024486 385.1,196.9 C384.1,197.6 383,198.1 381.8,198.4 C381.2,198.6 380.8,198.6 380.4,198.5 C380.2,198.4 379.9,198 379.7,197.4 C379.4,196.4 379.2,195.4 379.2,194.5 C379.1,192.5 379.2,190.5 379.6,188.5 L380.9,182.5 C381.1,181.8 381.3,181.3 381.6,180.9 C381.9,180.5 382.4,180.3 383.2,180.3 L383.9,180 C387.7,178.6 391,176.3 393.8,173.2 C395.106392,171.82753 395.946284,170.077754 396.2,168.2 L396.2,165.6 C395.9,164.8 395.4,164.1 394.6,163.6 C393.8,163 392.9,162.6 392.1,162.4 C391.1,162.3 390.3,162.4 389.3,162.9 C387.517245,163.830898 385.923415,165.085616 384.6,166.6 C381.1,170.5 378.6,174.9 376.9,179.9 L376.2,182.4 L373.3,188.6 C370.844341,193.649815 368.106687,198.557561 365.1,203.3 L364.5,203.8 L364.5,202.5 L364.8,199.9 L365.1,197.4 C365.547368,194.079057 365.880897,190.74377 366.1,187.4 L366.8,179 C366.8,178.5 366.8,178.1 366.6,178 L365.8,177.4 L365.2,176.9 C365,176.8 364.8,176.9 364.5,177.1 L364.5,177 L363.9,176.3 L363.6,176.4 L361.5,189 C360.809959,192.894927 360.47525,196.844497 360.5,200.8 L360.5,200.3 L360.6,195.3 C360.813409,191.37385 361.281055,187.465659 362,183.6 C362.410605,181.206919 362.777333,178.806516 363.1,176.4 L362.5,176.4 L362.1,177.1 L361.5,179.3 L360.5,184.6 L359.9,186.6 L356.4,195.4 C354.436977,200.375824 352.536826,205.376222 350.7,210.4 C350.2,211.5 349.7,212.7 349,213.7 C348.153502,215.02506 347.320127,216.358458 346.5,217.7 L346,216.9 C345.548911,215.907788 345.115509,214.90763 344.7,213.9 C343.855545,210.70323 343.451812,207.406073 343.5,204.1 C343.701737,198.414627 344.168913,192.741779 344.9,187.1 L345.7,182.4 C345.7,181.9 346,181.5 346.6,181.4 C347.8,180.8 349,180.2 350,179.4 L353,176.8 C359.846787,170.726018 364.867535,162.86595 367.5,154.1 C368,152.1 368.2,149.8 368,147.5 C367.904389,146.203621 367.454715,144.958369 366.7,143.9 C365.292926,141.949434 362.78166,141.139348 360.5,141.9 C359.5,142.2 358.5,142.8 357.6,143.5 C356.5,144.5 355.5,145.5 354.6,146.6 C351.761254,150.533617 349.347753,154.757244 347.4,159.2 C344.036212,167.137485 341.554658,175.420509 340,183.9 L337.7,188.6 C335.245846,193.6506 332.508145,198.558429 329.5,203.3 L329,203.8 L329,202.5 L329.2,199.9 C329.631979,195.696218 330.098662,191.496075 330.6,187.3 L331.2,179 C331.2,178.5 331.2,178.1 331,178 C330.9,177.8 330.6,177.6 330.2,177.4 L329.6,176.9 C329.5,176.8 329.2,176.9 328.9,177.1 L328.9,177 L328.4,176.3 L328,176.4 L326,189 C325.309411,192.894855 324.974697,196.844476 325,200.8 L325,200.3 L325.2,195.3 C325.2,193.6 325.2,191.9 325.5,190.3 C325.750969,188.055148 326.084529,185.8203 326.5,183.6 C326.942909,181.207349 327.342973,178.806965 327.7,176.4 L327,176.4 L326.6,177.1 C326.344467,177.817047 326.143888,178.552505 326,179.3 L325.2,184.1 L325.1,184.3 C323.457407,188.338713 321.72363,192.339737 319.9,196.3 C318.9,198.5 317.9,200.8 317,203.2 C314.974177,207.932056 312.670152,212.540108 310.1,217 L309.9,217 L309.9,212.2 C310.295479,208.536272 310.662157,204.869492 311,201.2 C312.069482,193.337506 313.504368,185.529056 315.3,177.8 C316.066962,173.683469 316.733825,169.548916 317.3,165.4 C317.3,164.2 317.3,163 317,161.7 C316.75506,160.555024 316.073489,159.550603 315.1,158.9 C314.459657,158.453432 313.670456,158.274069 312.9,158.4 C312.118985,158.563413 311.435247,159.031233 311,159.7 C308,164.1 305.2,168.6 302.7,173.2 C300.015134,177.986275 297.480562,182.85532 295.1,187.8 C295.739531,182.629868 296.406207,177.46313 297.1,172.3 C297.3,170.5 297.3,168.7 297.1,166.8 C296.999812,165.509293 296.43068,164.299888 295.5,163.4 C294.584228,162.555392 293.32722,162.185684 292.1,162.4 C291.629207,162.48245 291.203507,162.730775 290.9,163.1 C290.116989,164.166059 289.382897,165.267198 288.7,166.4 L285.7,170.7 C284.7,172.2 283.9,173.7 283.1,175.2 C280.64309,179.84384 278.439854,184.617518 276.5,189.5 L276.1,190.4 C276,190 275.9,189.8 276,189.7 C276.206726,183.766895 276.406727,177.833558 276.6,171.9 C276.5,171.7 276.3,171.6 276,171.6 C276,171.6 275.8,171.6 275.7,171.9 L275.5,172.5 C274.742089,180.351721 274.175255,188.220715 273.8,196.1 C273.358524,187.902832 273.861835,179.682088 275.3,171.6 L275.2,171.2 L274.9,171.2 L274.8,171.4 L274.5,172.1 L273.8,176.1 L273.4,180.2 C272.976433,184.486686 272.776163,188.792505 272.8,193.1 C272.671663,195.097941 272.671663,197.102059 272.8,199.1 L272.4,199.1 L272.4,198.1 L272.6,191.4 C272.681244,187.931526 272.814593,184.464468 273,181 C273.257083,177.805973 273.724766,174.632405 274.4,171.5 C274.5,171.1 274.4,170.9 274.1,170.9 L272.9,170.9 L272.2,171.9 L272,172.6 L271.8,173.4 C271.233811,175.634178 270.832728,177.906976 270.6,180.2 L270.4,182.7 C267.498503,188.047989 264.631776,193.414769 261.8,198.8 C260.293437,201.467151 258.623592,204.038712 256.8,206.5 C254.157951,210.035338 250.823511,212.995504 247,215.2 C245.8,215.8 244.6,216.2 243.3,216.5 C242.6,216.7 241.9,216.7 241.1,216.5 C240.3,216.5 239.6,216.1 238.9,215.7 C238.1,215.3 237.5,214.8 236.9,214.2 C236.3,213.6 235.9,212.9 235.6,212.2 C234.859699,210.615075 234.354386,208.9307 234.1,207.2 C233.590789,203.556937 233.423393,199.874236 233.6,196.2 L234.4,190.4 C234.776255,188.186537 235.448971,186.033846 236.4,184 C237.29016,181.933231 238.581796,180.063758 240.2,178.5 L242.5,176.5 C243.93019,175.31684 245.661456,174.555083 247.5,174.3 C248.502733,174.150168 249.502875,173.983478 250.5,173.8 L250.3,173.1 C250.1,172.7 250.2,172.5 250.6,172.3 L251.9,171.7 C252.3,171.4 252.4,171 252.1,170.7 C251.9,170.4 251.6,170.2 251.1,170.1 L249.9,170.1 L248.2,170.7 L245.8,171.1 C244.194518,171.332663 242.594157,171.59939 241,171.9 C240.05182,171.927507 239.115379,171.684726 238.3,171.2 C237.48275,170.746855 236.794433,170.092953 236.3,169.3 C234.910989,166.770273 234.417634,163.845381 234.9,161 C235.5,157.2 236.9,154 238.9,151.5 C241.1,148.9 243.8,146.8 247.2,145.1 C248.2,144.6 249.4,144.1 250.6,143.9 C251.8,143.7 253,143.7 254.3,143.9 C254.7,144 254.8,144.1 254.8,144.2 L254.7,144.9 C253.871248,147.168348 253.037913,149.43502 252.2,151.7 C251.8,152.7 251.6,153.9 251.4,155.1 C251.2,156.2 251.1,157.4 251.2,158.5 C251.2,159.8 251.9,160.8 253.2,161.5 L253.8,161.5 L253.8,160.9 C253.806303,159.966677 253.806303,159.033323 253.8,158.1 C254.446787,153.798111 256.053114,149.69685 258.5,146.1 L258.9,145.3 C258.9,145.1 258.7,144.8 258.3,144.3 C258.039773,143.755892 257.621585,143.302854 257.1,143 L255.6,142.2 C254.3,141.4 253,140.9 251.6,140.5 C250.392554,140.170283 249.123493,140.135984 247.9,140.4 C246.7,140.6 245.5,141 244.3,141.4 C240.666814,142.829196 237.463651,145.171293 235,148.2 C232.946727,150.515293 231.412409,153.242971 230.5,156.2 C229.654424,159.208379 229.654424,162.391621 230.5,165.4 C230.970287,167.303823 232.018225,169.015455 233.5,170.3 C235.036666,171.832219 236.924905,172.965163 239,173.6 L237.6,174.6 C234.953541,176.590177 232.882992,179.247381 231.6,182.3 C231.1,183.5 230.6,184.7 230.3,185.8 L229.3,189.5 C228.484571,192.76739 228.147726,196.13584 228.3,199.5 C228.405635,202.223262 228.740147,204.932814 229.3,207.6 C229.735046,210.541661 231.143363,213.252672 233.3,215.3 C235.546827,217.144911 238.302606,218.261176 241.2,218.5 C243.5,218.8 245.6,218.5 247.5,217.7 C252.212703,215.413572 256.271562,211.973861 259.3,207.7 C261.147227,205.150527 262.817798,202.477614 264.3,199.7 L267.8,193.1 L270.1,188.8 C270.062202,193.305249 270.229041,197.80989 270.6,202.3 L270.8,203 C270.8,203.3 271,203.4 271.1,203.5 L272.3,203.7 C272.73274,203.7 273.153808,203.559644 273.5,203.3 L273.8,203.2 C274.4,203.3 274.8,203.1 274.9,202.5 C275.112256,201.354549 275.379228,200.219917 275.7,199.1 C278.487095,190.45416 282.069063,182.085075 286.4,174.1 C287.752188,171.873543 289.291053,169.765967 291,167.8 L291.3,167.5 L291.6,167.2 L291.6,167.6 C290.929514,172.758237 290.329458,177.925385 289.8,183.1 C289.477693,185.994614 289.210977,188.895148 289,191.8 C288.907186,193.899088 288.840514,195.999251 288.8,198.1 C288.953811,198.935853 289.120497,199.769285 289.3,200.6 L289.6,200.8 C290.766973,200.635482 291.933641,200.468815 293.1,200.3 L293.2,200 L296.6,191.9 C300.88926,181.687831 306.146589,171.909869 312.3,162.7 L312.5,162.7 L312.3,164.3 L310.2,175.3 C309.442256,179.647529 308.608797,183.98152 307.7,188.3 L306.3,197.3 C305.338736,203.925898 305.237901,210.648252 306,217.3 L306.6,219.3 C306.9,220 307.5,220.3 308.4,220.2 C309.789309,220.040668 311.035515,219.270952 311.8,218.1 C312.262255,217.146932 312.762659,216.212843 313.3,215.3 C315.454846,210.476191 317.588201,205.642809 319.7,200.8 L324,191.1 C323.632673,194.085773 323.565671,197.100856 323.8,200.1 C324.157832,201.435747 324.524507,202.76911 324.9,204.1 C325.4,205.1 326.2,205.8 327.3,205.9 C328.1,205.9 328.7,205.9 329.3,205.7 C330,205.5 330.5,205.1 331,204.5 C331.520633,203.746989 332.020816,202.980042 332.5,202.2 L338,191.2 L339.3,188.5 L338.8,194.7 C338.8,196.7 338.6,198.9 338.4,201 L338.7,206.4 C338.971487,209.474357 339.643855,212.500011 340.7,215.4 C341.171209,216.517341 341.849842,217.535292 342.7,218.4 C343.1,219 343.7,219.3 344.3,219.4 C345.381569,219.623757 346.506789,219.483105 347.5,219 C348.5,218.5 349.3,217.8 349.9,216.7 C350.822972,215.095202 351.625189,213.423916 352.3,211.7 C353.915841,207.631331 355.449486,203.530498 356.9,199.4 L359.4,192.4 L359.1,195.5 C359.029991,197.754686 359.265462,200.008475 359.8,202.2 L360.5,204.1 C361,205.1 361.8,205.8 362.9,205.9 C363.6,205.9 364.3,205.9 364.9,205.7 C365.5,205.5 366.1,205.1 366.6,204.5 C367.120633,203.746989 367.620816,202.980042 368.1,202.2 L374.9,188.9 L374.9,193.4 C375.1,195.2 375.6,196.7 376.3,197.6 C377.1,198.6 378.3,199.2 379.7,199.6 C380.9,200.1 382,200.1 383,199.8 C384,199.5 385,199 386,198.4 C388.891638,196.530304 391.48707,194.238234 393.7,191.6 C397.058759,187.715638 400.101776,183.56911 402.8,179.2 C402.1,178.9 401.7,178.8 401.5,178.9 L400.8,179.8 L400.8,179.9 Z M481.4,214.2 C481.407416,213.598429 481.374006,212.997048 481.3,212.4 L481.6,212.3 L481.7,214.2 L481.4,214.2 Z M485,182.2 C486.542282,174.041673 488.209143,165.90739 490,157.8 C488.6,166 487,174.1 485.5,182.3 C483.863993,190.476755 482.562907,198.716966 481.6,207 C482.363062,198.686782 483.497529,190.411848 485,182.2 Z M487.4,164.9 L483.4,186.6 L483.2,186.6 L485.2,175.7 C485.8,172.1 486.5,168.5 487.4,164.9 Z M482.8,181.6 C483.317011,178.073145 483.984284,174.569959 484.8,171.1 C485.749032,166.522321 486.749094,161.955371 487.8,157.4 C486.104083,165.460596 484.437405,173.527315 482.8,181.6 Z M460.5,175.6 L460.3,175.6 L461,169.8 L461.2,169.8 L460.6,175.6 L460.5,175.6 Z M457.8,180.4 C457.710743,181.001741 457.610727,181.601837 457.5,182.2 L457.7,178.4 L457.9,178.4 L457.8,180.4 Z M499.8,178.4 C499.8,178.2 499.8,178 499.4,177.7 C499,177.6 498.7,177.5 498.4,177.6 C497.9,177.6 497.7,177.9 497.5,178.1 L496.5,180.2 L493.5,186.8 C489.746941,194.645307 486.343599,202.653172 483.3,210.8 L483,211.4 C482.874097,211.305573 482.8,211.157379 482.8,211 L483.2,207 L483.9,201 C484.4229,195.385223 485.291211,189.807992 486.5,184.3 C487.942456,176.974836 489.34248,169.641379 490.7,162.3 C491.801136,157.375128 492.37106,152.346388 492.4,147.3 C492.420774,146.054844 492.286407,144.811947 492,143.6 C491.875257,142.666883 491.532691,141.776214 491,141 C490.0348,139.712406 488.508878,138.968054 486.9,139 C486,139 485.2,139.1 484.4,139.5 C482.8,140.2 481.4,141.1 480.2,142.1 C478.950702,143.148126 477.811482,144.320852 476.8,145.6 C474.671652,148.308596 472.765459,151.184605 471.1,154.2 C468.159991,159.593816 465.359067,165.062287 462.7,170.6 L462.6,170.6 L462.6,169.8 C462.912204,167.530276 463.245552,165.263511 463.6,163 C463.820675,159.769677 463.987365,156.535892 464.1,153.3 C464.1,152.3 464.1,151.3 463.8,150.3 C463.5,149.3 463,148.3 462.2,147.5 C460.5,145.7 458.8,145.6 457.2,147.3 C455.9,148.3 454.8,149.5 453.8,150.7 C448.420199,157.97919 444.0474,165.951138 440.8,174.4 L440.4,175.6 C440.3,175.1 440.2,174.8 440.3,174.5 L441,168.9 L441.9,163.2 C442.6024,158.91561 443.402609,154.647829 444.3,150.4 C444.5,149.4 444.5,148.9 444.3,148.4 C443.882259,147.90681 443.37286,147.499291 442.8,147.2 C442.398728,147.105158 441.998695,147.00515 441.6,146.9 C441.230938,147.136641 440.949856,147.487994 440.8,147.9 C439.786639,151.51558 438.719855,155.115974 437.6,158.7 C434.94748,168.703015 434.034182,179.087554 434.9,189.4 C434.9,189.8 435.1,190.1 435.3,190.3 L436.1,190.7 L437.4,190.7 C438,191.2 438.4,191 438.4,190.3 L438.9,188.4 L439.5,186.6 C442.970278,174.880277 448.196255,163.754004 455,153.6 C456.197778,151.863729 457.608813,150.284714 459.2,148.9 L459.7,148.6 L459.9,149.2 C460,149.3 460.1,149.5 460,149.8 L459.6,155 C459.327367,158.418557 458.893551,161.822344 458.3,165.2 C457.552729,168.960258 457.084784,172.770665 456.9,176.6 C456.727662,179.599682 456.560996,182.599688 456.4,185.6 L456.5,186.4 C456.6,186.6 456.9,186.8 457.3,186.9 L458.3,186.9 L458.8,186.7 L459,186.3 L459.5,184.7 L459.5,185.7 L459.3,186.6 L459.3,186.9 L459.6,187.1 L460,187.1 L460.3,186.8 L460.5,186.2 C460.713218,185.342937 460.880127,184.475014 461,183.6 L461.5,181.6 C462.2403,179.064548 463.17645,176.590438 464.3,174.2 L467.8,167.1 C470.032619,162.540432 472.502674,158.10101 475.2,153.8 C477.069452,150.571061 479.282292,147.553551 481.8,144.8 C483.29441,143.287108 485.0579,142.06623 487,141.2 C487.5,141 487.9,140.9 488,141 C488.2,141.1 488.3,141.5 488.4,142 L488.5,143.3 L488.5,144.6 C487.817423,148.658845 487.184043,152.72581 486.6,156.8 C486.1,159.8 485.5,162.8 484.8,165.7 C483.274154,172.376458 482.039652,179.11617 481.1,185.9 L479.3,197.3 C478.66351,202.039514 478.362761,206.818084 478.4,211.6 L478.5,213.9 C478.6,214.7 478.9,215.4 479.2,216.1 C479.3,216.5 479.5,216.8 479.8,216.9 C480,217.1 480.3,217.2 480.8,217.1 C482.7,217.1 484,216.1 484.8,214.1 L486.5,210.3 C489.001786,204.891471 491.205094,199.349818 493.1,193.7 C495.086217,188.770161 497.220519,183.901285 499.5,179.1 L499.8,178.4 Z M504.9,197.2 C504.112455,196.281797 503.204204,195.474462 502.2,194.8 C501.1,194.1 500.1,194.2 499.2,195.1 L498.4,196.5 C498.119807,196.98549 497.981237,197.539771 498,198.1 L498.1,198.7 C498.1,198.9 498.1,199.1 498.3,199.3 C498.5,199.9 499,200.4 499.5,200.8 C500.1,201.2 500.7,201.4 501.3,201.5 C501.9,201.5 502.6,201.5 503.3,201.2 C503.9,201 504.4,200.6 504.9,200.1 C505.7,199.1 505.7,198.1 504.9,197.2 Z" id="Shape" fill="#333333" fill-rule="nonzero"></path>
            <path d="M238.8,231.8 L238.3,230.7 C237.947212,229.977348 237.342688,229.408384 236.6,229.1 L235.1,228.9 C233.752611,228.857539 232.474465,229.496612 231.7,230.6 L230.9,232.4 C230.535384,233.77626 230.535384,235.22374 230.9,236.6 L231.7,238.3 C232.451453,239.441392 233.7336,240.120175 235.1,240.1 C236.08513,240.127475 237.033713,239.726152 237.7,239 C238.1,238.6 238.4,238.2 238.5,237.7 L238.9,236.2 L241.4,236.2 C241.344071,237.029277 241.140899,237.841966 240.8,238.6 C239.840183,240.87425 237.566016,242.310566 235.1,242.2 C233.105482,242.272323 231.188302,241.42434 229.9,239.9 C227.5,236.7 227.5,232.3 229.9,229.1 C231.197299,227.58772 233.108352,226.742447 235.1,226.8 C236,226.8 236.7,226.9 237.5,227.2 C238.188308,227.416381 238.831945,227.755138 239.4,228.2 C240.53369,229.073624 241.257174,230.375896 241.4,231.8 L238.8,231.8 Z M245,231.2 L247.2,231.2 L247.2,233.2 L247.7,232.4 C248.107075,231.830998 248.659717,231.381977 249.3,231.1 L250.3,230.9 C250.632559,230.867874 250.967441,230.867874 251.3,230.9 L251.3,233.2 C250.966839,233.184841 250.633161,233.184841 250.3,233.2 C249.9,233.2 249.5,233.2 249.1,233.4 C248.8,233.5 248.5,233.8 248.2,234.1 L247.6,235.2 C247.447209,235.719 247.379664,236.259359 247.4,236.8 L247.4,241.8 L245,241.8 L245,231.2 Z M260.8,235.6 C260.8,235.2 260.8,234.9 260.6,234.6 L260.1,233.6 L259.2,233 L258.2,232.8 C257.8,232.8 257.4,232.8 257,233 C256.7,233.1 256.4,233.3 256.2,233.6 C255.70284,234.149608 255.419028,234.859139 255.4,235.6 L260.8,235.6 Z M255.4,237.1 L255.5,238.3 C255.7,238.7 255.8,239 256.1,239.3 C256.3,239.6 256.6,239.8 257,240 C257.3,240.2 257.7,240.3 258.2,240.3 C258.9,240.3 259.5,240.1 259.9,239.8 C260.3,239.5 260.6,239.1 260.9,238.5 L263,238.5 C262.68876,240.126366 261.490783,241.440276 259.9,241.9 L258.2,242.1 C257.4,242.1 256.7,242 256,241.7 C254.715233,241.156986 253.754895,240.048903 253.4,238.7 C252.961999,237.300128 252.961999,235.799872 253.4,234.4 C253.954085,232.629546 255.442864,231.3114 257.267398,230.975853 C259.091933,230.640306 260.952272,231.342523 262.1,232.8 L263.1,234.8 C263.2,235.6 263.3,236.3 263.1,237.1 L255.4,237.1 Z M273.2,236.5 C272.8,236.7 272.4,236.9 271.8,236.9 C271.058889,236.986298 270.324056,237.119904 269.6,237.3 L268.9,237.6 L268.5,238.1 L268.4,238.9 C268.4,239.2 268.4,239.4 268.6,239.6 L269.1,240 L269.8,240.2 L271.4,240.2 L272.2,239.8 C272.5,239.7 272.7,239.4 272.9,239.2 C273.1,238.9 273.2,238.6 273.2,238.2 L273.2,236.5 Z M275.5,239.5 L275.6,240.1 C275.6,240.2 275.8,240.3 276.1,240.3 L276.6,240.3 L276.6,241.8 C276.144127,241.945017 275.675267,242.045487 275.2,242.1 C274.7,242.1 274.2,242.1 274,241.8 C273.6,241.6 273.4,241.3 273.3,240.8 C272.9,241.3 272.3,241.6 271.6,241.8 C271,242 270.3,242.1 269.6,242.1 C269.2,242.1 268.7,242.1 268.3,241.9 L267.1,241.3 C266.422751,240.733826 266.052146,239.881436 266.1,239 C266.1,238.4 266.1,237.8 266.4,237.4 C266.6,237 266.9,236.7 267.4,236.4 L268.7,235.9 L270.1,235.7 L271.3,235.5 L272.3,235.4 C272.6,235.3 272.9,235.2 273,235 C273.2,234.8 273.3,234.6 273.3,234.2 C273.3,233.9 273.3,233.7 273.1,233.5 L272.6,233 L271.8,232.8 L271.1,232.8 C270.539771,232.781237 269.98549,232.919807 269.5,233.2 C269.1,233.5 268.8,233.9 268.8,234.5 L266.4,234.5 C266.4,233.8 266.6,233.2 266.9,232.8 C267.2,232.3 267.6,231.9 268,231.7 L269.5,231.1 C270.590598,230.89661 271.709402,230.89661 272.8,231.1 L274.2,231.6 L275.2,232.6 C275.4,233 275.5,233.4 275.5,234 L275.5,239.5 Z M278.6,231.2 L280.4,231.2 L280.4,228 L282.7,228 L282.7,231.2 L284.8,231.2 L284.8,233 L282.8,233 L282.8,239.7 L283.2,240 L283.8,240 C284.133176,240.0145 284.466824,240.0145 284.8,240 L284.8,241.8 C284.299717,241.828942 283.799698,241.862277 283.3,241.9 L281.8,241.8 C281.450585,241.686461 281.139196,241.478868 280.9,241.2 L280.5,240.4 L280.4,239.2 L280.4,233 L278.6,233 L278.6,231.2 Z M288.2,231.2 L290.6,231.2 L290.6,241.8 L288.2,241.8 L288.2,231.2 Z M288.2,227.2 L290.6,227.2 L290.6,229.4 L288.2,229.4 L288.2,227.2 Z M293.7,231.2 L296.2,231.2 L298.9,239.4 L301.6,231.2 L304,231.2 L300.2,241.8 L297.6,241.8 L293.6,231.2 L293.7,231.2 Z M314.3,235.6 C314.3,235.2 314.3,234.9 314.1,234.6 L313.6,233.6 L312.7,233 L311.7,232.8 C311.3,232.8 310.9,232.8 310.5,233 C310.2,233.1 309.9,233.3 309.7,233.6 C309.20284,234.149608 308.919028,234.859139 308.9,235.6 L314.3,235.6 Z M309,237 L309.1,238.2 C309.3,238.6 309.4,238.9 309.7,239.2 C309.9,239.5 310.2,239.7 310.6,239.9 C310.9,240.1 311.3,240.2 311.8,240.2 C312.5,240.2 313.1,240 313.5,239.7 C313.9,239.4 314.2,239 314.5,238.4 L316.6,238.4 C316.28876,240.026366 315.090783,241.340276 313.5,241.8 L311.8,242 C311,242 310.3,241.9 309.6,241.6 C308.315233,241.056986 307.354895,239.948903 307,238.6 C306.561999,237.200128 306.561999,235.699872 307,234.3 C307.433419,232.899674 308.459504,231.760078 309.806848,231.182645 C311.154192,230.605212 312.687061,230.648113 314,231.3 C314.663674,231.63452 315.244426,232.112787 315.7,232.7 L316.7,234.7 C316.8,235.5 316.9,236.2 316.7,237 L309,237 Z M332.4,228.6 C331.984227,228.599075 331.586722,228.770762 331.302357,229.074085 C331.017992,229.377407 330.872281,229.785151 330.9,230.2 L331,230.9 L331.3,231.5 L331.8,232.1 L332.2,232.6 C332.619246,232.290464 333.019937,231.956555 333.4,231.6 C333.6,231.5 333.7,231.3 333.8,231 L333.9,230.2 C333.9,229.76726 333.759644,229.346192 333.5,229 C333.2,228.7 332.9,228.6 332.5,228.6 L332.4,228.6 Z M331.5,235.1 L330.8,235.5 L330,236 L329.5,236.7 C329.295388,237.029792 329.191152,237.411992 329.2,237.8 C329.2,238.6 329.4,239.2 329.9,239.6 C330.3,240.1 330.9,240.3 331.6,240.3 C332.249111,240.3 332.880711,240.089466 333.4,239.7 L334,239.1 L334.4,238.6 L331.4,235.1 L331.5,235.1 Z M335.6,240.1 C335.1,240.9 334.5,241.3 333.8,241.7 C333.1,242 332.4,242.1 331.5,242.1 C330.8,242.1 330.2,242.1 329.6,241.8 L328.2,241 C327.8,240.6 327.4,240.1 327.2,239.6 C327,239.1 326.9,238.4 326.9,237.8 C326.9,237.2 326.9,236.8 327.2,236.3 L327.9,235.2 L329,234.2 L330.3,233.5 C329.95335,233.009007 329.619898,232.508828 329.3,232 L328.9,231.2 L328.8,230.3 C328.8,229.8 328.8,229.3 329,228.9 C329.380673,228.043114 330.107888,227.38862 331,227.1 C331.908434,226.795108 332.891566,226.795108 333.8,227.1 C335.149747,227.576631 336.038307,228.869082 336,230.3 C336,230.8 336,231.2 335.8,231.5 C335.535047,232.259724 335.047138,232.921886 334.4,233.4 L333.4,234 L335.7,236.8 C335.895551,236.147301 336.02947,235.477703 336.1,234.8 L338.1,234.8 C338.079401,236.079602 337.698124,237.327419 337,238.4 L339.8,241.8 L337,241.8 L335.7,240.2 L335.6,240.1 Z M349.8,231.2 L352,231.2 L352,232.8 C352.4,232.2 352.8,231.8 353.4,231.4 C354,231.1 354.6,230.9 355.4,230.9 C356.392927,230.886635 357.355327,231.243079 358.1,231.9 C358.7,232.4 359.1,233.3 359.1,234.5 L359.1,241.8 L356.7,241.8 L356.7,235.2 C356.75132,234.528498 356.575205,233.859259 356.2,233.3 C355.9,233 355.4,232.8 354.7,232.8 C354.3,232.8 353.9,232.8 353.6,233 C353.3,233.1 353,233.3 352.8,233.6 C352.557649,233.851226 352.385271,234.161507 352.3,234.5 L352.1,235.5 L352.1,241.8 L349.8,241.8 L349.8,231.2 Z M369.7,236.5 C369.4,236.7 368.9,236.9 368.4,236.9 C367.625243,236.981694 366.856848,237.115328 366.1,237.3 L365.5,237.6 L365.1,238.1 L365,238.9 C365,239.2 365,239.4 365.2,239.6 L365.7,240 L366.4,240.2 L368,240.2 L368.8,239.8 C369.1,239.7 369.3,239.4 369.5,239.2 C369.7,238.9 369.7,238.6 369.7,238.2 L369.7,236.5 Z M372.1,239.5 L372.1,240.1 L372.6,240.3 L373.2,240.3 L373.2,241.8 C372.711886,241.952256 372.209127,242.052808 371.7,242.1 C371.3,242.1 370.9,242.1 370.5,241.8 C370.2,241.6 370,241.3 369.9,240.8 C369.5,241.3 368.9,241.6 368.2,241.8 C367.55137,241.996284 366.877674,242.097338 366.2,242.1 C365.8,242.1 365.3,242.1 364.9,241.9 C364.4,241.8 364,241.6 363.7,241.3 C363.022751,240.733826 362.652146,239.881436 362.7,239 C362.7,238.4 362.7,237.8 363,237.4 C363.2,237 363.5,236.7 364,236.4 L365.2,235.9 L366.7,235.7 L367.9,235.5 L368.9,235.4 C369.2,235.3 369.5,235.2 369.6,235 C369.8,234.8 369.9,234.6 369.9,234.2 C369.9,233.9 369.9,233.7 369.7,233.5 L369.1,233 L368.4,232.8 L367.7,232.8 C367.139771,232.781237 366.58549,232.919807 366.1,233.2 C365.6,233.5 365.4,233.9 365.3,234.5 L363,234.5 C363,233.8 363.2,233.2 363.5,232.8 C363.8,232.3 364.2,231.9 364.6,231.7 C365.053987,231.400059 365.564395,231.195895 366.1,231.1 C367.190598,230.89661 368.309402,230.89661 369.4,231.1 L370.7,231.6 C371.1,231.9 371.5,232.2 371.7,232.6 C372,233 372.1,233.4 372.1,234 L372.1,239.5 Z M375.2,231.2 L376.9,231.2 L376.9,228 L379.3,228 L379.3,231.2 L381.4,231.2 L381.4,233 L379.3,233 L379.3,239.3 C379.3,239.4 379.3,239.6 379.5,239.7 L379.8,240 L380.4,240 C380.733178,240.014374 381.066822,240.014374 381.4,240 L381.4,241.8 C380.899692,241.828533 380.399668,241.861867 379.9,241.9 L378.4,241.8 C378.050585,241.686461 377.739196,241.478868 377.5,241.2 L377.1,240.4 L376.9,239.2 L376.9,233 L375.2,233 L375.2,231.2 Z M394,241.8 L391.8,241.8 L391.8,240.3 C391.4,240.9 391,241.3 390.4,241.6 C389.9,242 389.3,242.1 388.7,242.1 C387.3,242.1 386.3,241.8 385.7,241.1 C385,240.4 384.7,239.3 384.7,237.9 L384.7,231.2 L387.1,231.2 L387.1,237.7 C387.1,238.7 387.3,239.3 387.6,239.7 C388,240.1 388.5,240.3 389.1,240.3 C389.6,240.3 390.1,240.2 390.3,240 C390.947089,239.735008 391.42967,239.178183 391.6,238.5 L391.7,237.4 L391.7,231.2 L394.1,231.2 L394.1,241.8 L394,241.8 Z M398.2,231.2 L400.4,231.2 L400.4,233.2 L400.8,232.4 C401.230422,231.812752 401.820493,231.361521 402.5,231.1 L403.5,230.9 L404.4,230.9 L404.4,233.2 C404.066839,233.184841 403.733161,233.184841 403.4,233.2 C403,233.2 402.6,233.2 402.3,233.4 C401.9,233.5 401.6,233.8 401.3,234.1 L400.7,235.2 L400.5,236.8 L400.5,241.8 L398.2,241.8 L398.2,231.2 Z M413.6,236.5 C413.2,236.7 412.8,236.9 412.3,236.9 C411.525243,236.981694 410.756848,237.115328 410,237.3 L409.4,237.6 L409,238.1 L408.8,238.9 C408.8,239.2 408.8,239.4 409,239.6 L409.6,240 L410.3,240.2 L411.8,240.2 L412.7,239.8 L413.3,239.2 C413.5,238.9 413.6,238.6 413.6,238.2 L413.6,236.5 Z M415.9,239.5 L416,240.1 L416.5,240.3 L417,240.3 L417,241.8 C416.608816,241.932439 416.207487,242.032771 415.8,242.1 L415.5,242.1 C415,242.1 414.6,242.1 414.3,241.8 C414,241.6 413.8,241.3 413.7,240.8 C413.2,241.3 412.7,241.6 412,241.8 L410,242.1 C409.5,242.1 409,242.1 408.6,241.9 C408.2,241.8 407.8,241.6 407.5,241.3 C407.1,241.1 406.9,240.8 406.7,240.3 C406.50369,239.894678 406.401154,239.450358 406.4,239 C406.4,238.4 406.4,237.8 406.7,237.4 L407.7,236.4 L409,235.9 L410.4,235.7 L411.7,235.5 L412.7,235.4 L413.4,235 L413.6,234.2 C413.6,233.9 413.6,233.7 413.4,233.5 L412.9,233 L412.2,232.8 L411.4,232.8 C410.839771,232.781237 410.28549,232.919807 409.8,233.2 C409.4,233.5 409.1,233.9 409.1,234.5 L406.8,234.5 C406.8,233.8 407,233.2 407.2,232.8 C407.5,232.3 407.9,231.9 408.3,231.7 C408.8,231.4 409.3,231.2 409.9,231.1 C410.958103,230.908848 412.041897,230.908848 413.1,231.1 L414.5,231.6 L415.5,232.6 C415.7,233 415.8,233.4 415.8,234 L415.8,239.5 L415.9,239.5 Z" id="Shape" fill="#CC8776" fill-rule="nonzero"></path>
            <polygon id="Shape" fill="#CC8776" fill-rule="nonzero" points="420.2 227.2 422.5 227.2 422.5 241.9 420.2 241.9"></polygon>
            <path d="M442.3,236.5 C442.3,236.1 442.3,235.5 442.1,235.1 L441.5,233.9 C441.3,233.6 441,233.3 440.6,233.1 C440.2,232.9 439.8,232.8 439.3,232.8 C438.3,232.8 437.6,233.1 437.1,233.8 C436.6,234.5 436.4,235.4 436.4,236.5 C436.4,237.1 436.4,237.5 436.6,238 C436.6,238.5 436.9,238.9 437.1,239.2 L438.1,240 C438.4,240.2 438.9,240.3 439.3,240.3 C440.225714,240.338374 441.101905,239.88123 441.6,239.1 L442.1,237.9 L442.3,236.5 Z M434.1,227.2 L436.4,227.2 L436.4,232.6 L437.1,231.9 C437.549261,231.470356 438.099531,231.160829 438.7,231 C439.73892,230.767412 440.824959,230.872513 441.8,231.3 C443.042506,231.948857 443.977372,233.063504 444.4,234.4 C444.945928,236.438219 444.619912,238.611658 443.5,240.4 C443.1,240.9 442.6,241.4 442.1,241.7 C441.5,242 440.8,242.1 440.1,242.1 L439,242.1 L438,241.8 C437.6,241.6 437.3,241.5 437,241.2 C436.8,241 436.5,240.7 436.4,240.4 L436.4,241.8 L434,241.8 L434,227.2 L434.1,227.2 Z M455.5,235.6 C455.5,235.2 455.5,234.9 455.3,234.6 C455.0587,233.929218 454.552567,233.386933 453.9,233.1 C453.599107,232.913227 453.254015,232.809699 452.9,232.8 C452.4,232.8 452.1,232.8 451.7,233 C451.4,233.1 451.1,233.3 450.9,233.6 C450.410222,234.154185 450.12753,234.860916 450.1,235.6 L455.5,235.6 Z M450.1,237.1 L450.2,238.3 C450.3,238.7 450.5,239 450.8,239.3 L451.6,240 C452.567568,240.455195 453.701419,240.379605 454.6,239.8 C455,239.5 455.3,239.1 455.5,238.5 L457.7,238.5 C457.38876,240.126366 456.190783,241.440276 454.6,241.9 L452.9,242.1 C452.145873,242.134457 451.393734,241.997705 450.7,241.7 C449.415233,241.156986 448.454895,240.048903 448.1,238.7 C447.661999,237.300128 447.661999,235.799872 448.1,234.4 C448.533419,232.999674 449.559504,231.860078 450.906848,231.282645 C452.254192,230.705212 453.787061,230.748113 455.1,231.4 C455.763674,231.73452 456.344426,232.212787 456.8,232.8 L457.8,234.8 C457.9,235.6 458,236.3 457.8,237.1 L450.1,237.1 Z M467.8,236.5 C467.5,236.7 467,236.9 466.5,236.9 C465.725243,236.981694 464.956848,237.115328 464.2,237.3 L463.6,237.6 L463.2,238.1 L463.1,238.9 C463.1,239.2 463.1,239.4 463.3,239.6 L463.8,240 L464.5,240.2 L466.1,240.2 L466.9,239.8 C467.2,239.7 467.4,239.4 467.6,239.2 C467.8,238.9 467.8,238.6 467.8,238.2 L467.8,236.5 Z M470.2,239.5 L470.3,240.1 L470.7,240.3 L471.3,240.3 L471.3,241.8 C470.941362,241.927402 470.573661,242.027684 470.2,242.1 L469.8,242.1 C469.4,242.1 469,242.1 468.6,241.8 C468.3,241.6 468.1,241.3 468,240.8 C467.6,241.3 467,241.6 466.3,241.8 C465.65137,241.996284 464.977674,242.097338 464.3,242.1 C463.9,242.1 463.4,242.1 463,241.9 C462.5,241.8 462.2,241.6 461.8,241.3 C461.430938,241.063359 461.149856,240.712006 461,240.3 C460.80369,239.894678 460.701154,239.450358 460.7,239 C460.7,238.4 460.8,237.8 461.1,237.4 C461.3,237 461.6,236.7 462.1,236.4 L463.3,235.9 L464.8,235.7 L466,235.5 L467,235.4 C467.3,235.3 467.6,235.2 467.7,235 C467.9,234.8 468,234.6 468,234.2 C468,233.9 468,233.7 467.8,233.5 L467.2,233 L466.5,232.8 L465.8,232.8 C465.239771,232.781237 464.68549,232.919807 464.2,233.2 C463.7,233.5 463.5,233.9 463.4,234.5 L461.1,234.5 C461.1,233.8 461.3,233.2 461.6,232.8 C461.9,232.3 462.3,231.9 462.7,231.7 C463.153987,231.400059 463.664395,231.195895 464.2,231.1 C465.290598,230.89661 466.409402,230.89661 467.5,231.1 L468.8,231.6 C469.2,231.9 469.6,232.2 469.8,232.6 C470.1,233 470.2,233.4 470.2,234 L470.2,239.5 Z M483.7,241.8 L481.4,241.8 L481.4,240.3 C481.073479,240.828391 480.628391,241.273479 480.1,241.6 C479.568508,241.953996 478.937923,242.129158 478.3,242.1 C476.9,242.1 475.9,241.8 475.3,241.1 C474.7,240.4 474.3,239.3 474.3,237.9 L474.3,231.2 L476.7,231.2 L476.7,237.7 C476.7,238.7 476.9,239.3 477.2,239.7 C477.6,240.1 478.1,240.3 478.7,240.3 C479.2,240.3 479.7,240.2 480,240 C480.3,239.9 480.6,239.7 480.8,239.4 C481,239.2 481.1,238.9 481.2,238.5 L481.3,237.4 L481.3,231.2 L483.7,231.2 L483.7,241.8 Z M486.7,231.2 L488.5,231.2 L488.5,228 L490.8,228 L490.8,231.2 L492.9,231.2 L492.9,233 L490.9,233 L490.9,239.3 L491,239.7 L491.3,240 L492,240 C492.333178,240.014374 492.666822,240.014374 493,240 L493,241.8 C492.466326,241.827632 491.932962,241.860967 491.4,241.9 L489.9,241.8 C489.550585,241.686461 489.239196,241.478868 489,241.2 L488.6,240.4 L488.5,239.2 L488.5,233 L486.7,233 L486.7,231.2 Z M495.1,231.2 L497.7,231.2 L500.4,239.2 L503.2,231.2 L505.6,231.2 L501.5,242.4 C501.083389,243.241923 500.649969,244.075423 500.2,244.9 C499.591582,245.646749 498.661602,246.05594 497.7,246 L496.1,246 L496.1,244 C496.466502,243.98448 496.833498,243.98448 497.2,244 L497.9,244 C498.1,244 498.2,243.8 498.3,243.7 L498.6,243.2 L498.9,242.6 L499.1,241.8 L495.1,231.2 Z" id="Shape" fill="#CC8776" fill-rule="nonzero"></path>
            <path d="M541.3,155.8 C541.036231,155.796243 540.78463,155.688414 540.6,155.5 L366.9,7.3 L193.2,155.5 C192.702944,155.941828 191.941828,155.897056 191.5,155.4 C191.058172,154.902944 191.102944,154.141828 191.6,153.7 L367,4.2 L542,153.7 C542.306357,154.039844 542.392797,154.524327 542.222868,154.949147 C542.05294,155.373968 541.656219,155.665187 541.2,155.7" id="Shape" fill="#333333" fill-rule="nonzero"></path>
            <path d="M532.6,157.7 C532.064285,157.670464 531.546294,157.4978 531.1,157.2 L366.9,17 L202.6,157 C201.627664,157.441415 200.480634,157.187315 199.785692,156.37655 C199.09075,155.565784 199.015067,154.393387 199.6,153.5 L366.9,10.8 L534.2,153.6 C534.877264,154.273502 535.090697,155.284492 534.743463,156.174278 C534.396229,157.064065 533.554433,157.663258 532.6,157.7 Z M366.9,389.7 L191.6,240.2 C191.102944,239.758172 191.058172,238.997056 191.5,238.5 C191.941828,238.002944 192.702944,237.958172 193.2,238.4 L366.9,386.6 L540.6,238.4 C541.1,238 541.8,238 542.2,238.5 C542.7,239 542.6,239.8 542.2,240.2 L366.8,389.7 L366.9,389.7 Z" id="Shape" fill="#333333" fill-rule="nonzero"></path>
            <path d="M366.9,383 L199.6,240.3 C198.726085,239.848907 198.215817,238.910297 198.312429,237.931584 C198.409041,236.952871 199.092979,236.132146 200.038226,235.860628 C200.983472,235.589111 201.998711,235.921756 202.6,236.7 L367,376.8 L531.2,236.8 C532.172336,236.358585 533.319366,236.612685 534.014308,237.42345 C534.70925,238.234216 534.784933,239.406613 534.2,240.3 L367,383 L366.9,383 Z" id="Shape" fill="#333333" fill-rule="nonzero"></path>
            <path d="M353,281.2 C353,280.6 353.2,280 353.5,279.6 C353.7,279.1 354,278.6 354.4,278.2 C355.2,277.2 356.1,277.2 357.3,277.9 C358.257374,278.633025 359.159787,279.43517 360,280.3 C360.8,281.2 360.8,282.1 360,283.2 C359.07993,284.196601 357.751642,284.713157 356.4,284.6 C355.751831,284.517193 355.133818,284.276854 354.6,283.9 C354,283.5 353.6,282.9 353.4,282.4 L353.2,281.8 L353.1,281.2 M363.1,281.2 C363.1,280.6 363.2,280 363.5,279.6 C363.7,279.1 364,278.6 364.4,278.2 C365.2,277.2 366.2,277.2 367.3,277.9 C368.257374,278.633025 369.159787,279.43517 370,280.3 C370.8,281.2 370.8,282.1 370,283.2 C369.07993,284.196601 367.751642,284.713157 366.4,284.6 C365.751831,284.517193 365.133818,284.276854 364.6,283.9 C364.1,283.5 363.6,282.9 363.4,282.4 L363.2,281.8 L363.2,281.2 M373.2,281.2 C373.2,280.6 373.2,280 373.5,279.6 L374.5,278.2 C375.3,277.2 376.2,277.2 377.3,277.9 C378.255821,278.634904 379.158102,279.436932 380,280.3 C380.8,281.2 380.8,282.1 380,283.2 C379.6,283.7 379,284.1 378.4,284.3 C377.75137,284.496284 377.077674,284.597338 376.4,284.6 C375.8,284.5 375.2,284.3 374.7,283.9 C374.1,283.5 373.7,282.9 373.4,282.4 L373.3,281.8 L373.2,281.2" id="Shape" fill="#1B0A40" fill-rule="nonzero"></path>
            <path d="M46.4,206.1 C45.1849736,206.1 44.2,205.115026 44.2,203.9 C44.2,202.684974 45.1849736,201.7 46.4,201.7 C47.6150264,201.7 48.6,202.684974 48.6,203.9 C48.6,205.115026 47.6150264,206.1 46.4,206.1 Z M43.2,212.1 C41.9573593,212.1 40.95,211.092641 40.95,209.85 C40.95,208.607359 41.9573593,207.6 43.2,207.6 C44.4150264,207.6 45.4,208.584974 45.4,209.8 C45.4,211.015026 44.4150264,212 43.2,212 L43.2,212.1 Z M40,218 C38.7849736,218 37.8,217.015026 37.8,215.8 C37.8,214.584974 38.7849736,213.6 40,213.6 C41.2150264,213.6 42.2,214.584974 42.2,215.8 C42.2,217.015026 41.2150264,218 40,218 Z M36.9,224 C35.6573593,224 34.65,222.992641 34.65,221.75 C34.65,220.507359 35.6573593,219.5 36.9,219.5 C38.1150264,219.5 39.1,220.484974 39.1,221.7 C39.1,222.915026 38.1150264,223.9 36.9,223.9 L36.9,224 Z M24.9,199.2 L10.5,221.1 L19,222.7 L36,204.3 L26.4,225 C38.6239781,227.081454 51.0814382,227.418143 63.4,226 L81,199.1 L25,199.1 L24.9,199.2 Z" id="Shape" fill="#00687A" fill-rule="nonzero"></path>
            <path d="M132,205.6 C130.784974,205.6 129.8,204.615026 129.8,203.4 C129.8,202.184974 130.784974,201.2 132,201.2 C133.215026,201.2 134.2,202.184974 134.2,203.4 C134.2,204.615026 133.215026,205.6 132,205.6 Z M128.7,211.6 C127.457359,211.6 126.45,210.592641 126.45,209.35 C126.45,208.107359 127.457359,207.1 128.7,207.1 C129.942641,207.1 130.95,208.107359 130.95,209.35 C130.95,210.592641 129.942641,211.6 128.7,211.6 Z M125.6,217.5 C124.384974,217.5 123.4,216.515026 123.4,215.3 C123.4,214.084974 124.384974,213.1 125.6,213.1 C126.815026,213.1 127.8,214.084974 127.8,215.3 C127.8,216.515026 126.815026,217.5 125.6,217.5 Z M122.4,223.5 C121.157359,223.5 120.15,222.492641 120.15,221.25 C120.15,220.007359 121.157359,219 122.4,219 C123.615026,219 124.6,219.984974 124.6,221.2 C124.6,222.415026 123.615026,223.4 122.4,223.4 L122.4,223.5 Z M85.7,199.2 L72.9,221.5 C78.7,221.8 84.9,221.4 90.6,219.4 L106.1,208.8 L98,221.6 L106.8,223.3 L123.8,204.9 L114.2,225.5 C114.3,225.3 122.7,226.7 123.2,226.7 L124.7,226.9 L140.6,199.2 L85.6,199.2 L85.7,199.2 Z" id="Shape" fill="#DDD2BD" fill-rule="nonzero"></path>
            <path d="M107.1,193.7 C105.884974,193.7 104.9,192.715026 104.9,191.5 C104.9,190.284974 105.884974,189.3 107.1,189.3 C108.315026,189.3 109.3,190.284974 109.3,191.5 C109.3,192.715026 108.315026,193.7 107.1,193.7 Z M101.7,185.6 C101.7,184.357359 102.707359,183.35 103.95,183.35 C105.192641,183.35 106.2,184.357359 106.2,185.6 C106.2,186.842641 105.192641,187.85 103.95,187.85 C102.707359,187.85 101.7,186.842641 101.7,185.6 Z M98.6,179.6 C98.6,178.384974 99.5849736,177.4 100.8,177.4 C102.015026,177.4 103,178.384974 103,179.6 C103,180.815026 102.015026,181.8 100.8,181.8 C99.5849736,181.8 98.6,180.815026 98.6,179.6 Z M95.4,173.7 C95.4,172.484974 96.3849736,171.5 97.6,171.5 C98.8150264,171.5 99.8,172.484974 99.8,173.7 C99.8,174.915026 98.8150264,175.9 97.6,175.9 C96.3849736,175.9 95.4,174.915026 95.4,173.7 Z M124.2,169.5 L117.9,168.8 C110.7,168.4 103.4,168.5 96.1,169.2 C95.6,169.2 87.2,170.7 87.1,170.5 L96.8,191.1 L79.8,172.7 L71.2,174.3 L84.5,194.5 L140.6,194.5 L124.2,169.5 Z" id="Shape" fill="#CC8776" fill-rule="nonzero"></path>
            <path d="M591.2,196.9 C591.2,200.048023 588.648023,202.6 585.5,202.6 C582.351977,202.6 579.8,200.048023 579.8,196.9 C579.8,193.751977 582.351977,191.2 585.5,191.2 C588.648023,191.2 591.2,193.751977 591.2,196.9" id="Shape" fill="#DDD2BD" fill-rule="nonzero"></path>
            <path d="M611.3,194.5 L608.5,194.5 C607.476196,190.703027 604.032579,188.06495 600.1,188.06495 C596.167421,188.06495 592.723804,190.703027 591.7,194.5 L590.7,194.5 C591.389253,195.990858 591.389253,197.709142 590.7,199.2 L591.7,199.2 C592.723804,202.996973 596.167421,205.63505 600.1,205.63505 C604.032579,205.63505 607.476196,202.996973 608.5,199.2 L611.3,199.2 L611.8,196.9 L611.3,194.5 M579.8,196.9 C579.8,196 580,195.2 580.3,194.5 L579.3,194.5 C578.356441,192.510792 576.351647,191.242847 574.15,191.242847 C571.948353,191.242847 569.943559,192.510792 569,194.5 L567.9,194.5 C566.956441,192.510792 564.951647,191.242847 562.75,191.242847 C560.548353,191.242847 558.543559,192.510792 557.6,194.5 L526.9,194.5 C525.944875,194.301928 524.96488,194.701645 524.420754,195.511228 C523.876629,196.320811 523.876629,197.379189 524.420754,198.188772 C524.96488,198.998355 525.944875,199.398072 526.9,199.2 L557.6,199.2 C558.543559,201.189208 560.548353,202.457153 562.75,202.457153 C564.951647,202.457153 566.956441,201.189208 567.9,199.2 L568.9,199.2 C569.819401,201.247906 571.85518,202.565476 574.1,202.565476 C576.34482,202.565476 578.380599,201.247906 579.3,199.2 L580.3,199.2 C579.983117,198.473864 579.813181,197.692159 579.8,196.9" id="Shape" fill="#333333" fill-rule="nonzero"></path>
            <path d="M159,196.9 C159,193.724363 161.574363,191.15 164.75,191.15 C167.925637,191.15 170.5,193.724363 170.5,196.9 C170.5,200.048023 167.948023,202.6 164.8,202.6 C161.651977,202.6 159.1,200.048023 159.1,196.9" id="Shape" fill="#DDD2BD" fill-rule="nonzero"></path>
            <path d="M206,194.5 L192.6,194.5 C191.656441,192.510792 189.651647,191.242847 187.45,191.242847 C185.248353,191.242847 183.243559,192.510792 182.3,194.5 L181.3,194.5 C180.356441,192.510792 178.351647,191.242847 176.15,191.242847 C173.948353,191.242847 171.943559,192.510792 171,194.5 L170,194.5 C170.689253,195.990858 170.689253,197.709142 170,199.2 L171,199.2 C171.943559,201.189208 173.948353,202.457153 176.15,202.457153 C178.351647,202.457153 180.356441,201.189208 181.3,199.2 L182.3,199.2 C183.243559,201.189208 185.248353,202.457153 187.45,202.457153 C189.651647,202.457153 191.656441,201.189208 192.6,199.2 L206,199.2 C207.113945,198.968992 207.91266,197.987646 207.91266,196.85 C207.91266,195.712354 207.113945,194.731008 206,194.5 M71.2,194.2 C69.9849736,194.2 69,193.215026 69,192 C69,190.784974 69.9849736,189.8 71.2,189.8 C72.4150264,189.8 73.4,190.784974 73.4,192 C73.4,193.215026 72.4150264,194.2 71.2,194.2 M65.8,186.1 C65.8,184.884974 66.7849736,183.9 68,183.9 C69.2150264,183.9 70.2,184.884974 70.2,186.1 C70.2,187.315026 69.2150264,188.3 68,188.3 C66.7849736,188.3 65.8,187.315026 65.8,186.1 M62.6,180.1 C62.6,178.884974 63.5849736,177.9 64.8,177.9 C66.0150264,177.9 67,178.884974 67,180.1 C67,181.315026 66.0150264,182.3 64.8,182.3 C63.5849736,182.3 62.6,181.315026 62.6,180.1 M59.5,174.2 C59.5,172.984974 60.4849736,172 61.7,172 C62.9150264,172 63.9,172.984974 63.9,174.2 C63.9,175.415026 62.9150264,176.4 61.7,176.4 C60.4849736,176.4 59.5,175.415026 59.5,174.2 M159.1,196.9 C159.1,196 159.3,195.2 159.6,194.5 L158.5,194.5 C157.415032,190.791424 154.014025,188.242847 150.15,188.242847 C146.285975,188.242847 142.884968,190.791424 141.8,194.5 L78.8,194.5 L63.9,168.5 L62.5,168.7 C62,168.7 53.6,170.1 53.5,169.9 L63.1,190.6 L46.1,172.2 L37.2,173.9 L45.3,186.7 L30,176 C24.2675077,174.113508 18.2141222,173.399344 12.2,173.9 L24,194.5 L20.6,194.5 C19.4590302,190.260198 15.3377113,187.53501 10.9896855,188.145259 C6.6416598,188.755509 3.42975833,192.509921 3.5,196.9 C3.48226066,201.270062 6.70909985,204.975126 11.0401962,205.557671 C15.3712926,206.140217 19.4624261,203.419441 20.6,199.2 L141.9,199.2 C142.984968,202.908576 146.385975,205.457153 150.25,205.457153 C154.114025,205.457153 157.515032,202.908576 158.6,199.2 L159.7,199.2 C159.383117,198.473864 159.213181,197.692159 159.2,196.9" id="Shape" fill="#333333" fill-rule="nonzero"></path>
        </g>
    </g>
</svg>