<?xml version="1.0" encoding="UTF-8"?>
<svg width="139px" height="41px" viewBox="0 0 278 82" version="1.1" xmlns="http://www.w3.org/2000/svg" xmlns:xlink="http://www.w3.org/1999/xlink">
    <!-- Generator: Sketch 50.2 (55047) - http://www.bohemiancoding.com/sketch -->
    <title>Group</title>
    <desc>Created with Sketch.</desc>
    <defs></defs>
    <g id="Page-1" stroke="none" stroke-width="1" fill="none" fill-rule="evenodd">
        <g id="logo" transform="translate(-225.000000, -135.000000)" fill-rule="nonzero">
            <g id="Group" transform="translate(225.000000, 134.000000)">
                <path d="M102,34.6 L102.8,34.6 L103.5,34.5 C104.153388,34.0224795 104.586135,33.3012344 104.7,32.5 C104.9,31.7 104.7,30.9 104.3,30.3 L103.2,29.2 C102.7,28.7 102.2,28.5 101.5,28.5 C100.9,28.5 100.4,28.9 100,29.6 C99.7546887,30.2522254 99.554222,30.9204478 99.4,31.6 C99.5,33.3 100.4,34.3 102.1,34.6 M138.8,29.2 C138.3,28.7 137.8,28.5 137.1,28.5 C136.5,28.5 136,28.9 135.6,29.6 C135.322729,30.2504665 135.088883,30.918598 134.9,31.6 C135.1,33.3 135.9,34.3 137.6,34.6 L138.4,34.6 L139.1,34.5 C139.753388,34.0224795 140.186135,33.3012344 140.3,32.5 C140.4,31.7 140.3,30.9 139.8,30.3 C139.501531,29.90309 139.166753,29.5348338 138.8,29.2" id="Shape" fill="#1B0A40"></path>
                <path d="M150,51.6 C150.295606,48.3800865 151.035981,45.2166678 152.2,42.2 C151.48,45.336 150.747,48.47 150,51.6 Z M148.7,47.1 L148.5,47.1 L148.5,46.9 L150,42 C150.549412,40.618142 151.049726,39.2172645 151.5,37.8 C151.911832,36.8078072 152.379239,35.8396062 152.9,34.9 L153.1,35.1 L150.1,42.1 L148.7,47.1 Z M155,35.1 C156.183119,33.1056422 157.556165,31.2302624 159.1,29.5 C157.673391,31.1596523 156.432674,32.9704291 155.4,34.9 L152.6,40.9 C152.6,40.4 152.9,39.6 153.3,38.5 L155,35.1 Z M161.4,28.5 C162.4,27.5 163.4,26.8 164.5,26.3 C165.5,25.8 166.1,26.1 166.3,27.2 C166.5,28.1 166.5,29 166.3,29.8 C166.1,30.6 165.7,31.4 165.3,32.1 C164.743624,32.8679683 164.142588,33.6025686 163.5,34.3 C160.82904,36.7542882 157.792789,38.7784551 154.5,40.3 L154.3,40.1 C154.856096,38.876635 155.38952,37.6430908 155.9,36.4 C157.340022,33.4832706 159.192346,30.7889824 161.4,28.4 L161.4,28.5 Z M135.2,65.4 L135.1,65 L135,64.6 C135.14,62.002 135.24,59.401 135.3,56.8 L136,50.8 L136.8,44.6 C136.923,43.599 137.056,42.599 137.2,41.6 L137.4,41.6 L136.1,53.6 C135.6,57.6 135.3,61.5 135.2,65.5 L135.2,65.4 Z M134.5,54.7 C134.215984,57.6923282 134.04919,60.6946259 134,63.7 C133.8,63.3 133.7,62.3 133.7,60.7 C133.778278,55.5190443 134.381359,50.3593549 135.5,45.3 L135,50 L134.5,54.7 Z M134.6,63.4 L134.6,59.4 L134.6,63.4 Z M115.8,77.4 C115.526445,76.5903307 115.226283,75.7898963 114.9,75 C114.157486,72.4005775 113.82019,69.7022131 113.9,67 C113.737336,59.212714 114.441669,51.4315063 116,43.8 L116.3,43.4 L116.3,44.4 C115.828391,48.2749296 115.29499,52.1420884 114.7,56 C114.165444,60.9506524 114.131941,65.9426186 114.6,70.9 C114.816436,73.0804796 115.286272,75.2283031 116,77.3 L115.8,77.3 L115.8,77.4 Z M113.1,69.2 L114.3,75.8 C113.5,73.7 113.1,71.5 113.1,69.2 Z M112.3,72.4 L111.8,68.4 L113.4,76.4 C112.9,75.1 112.5,73.7 112.3,72.4 Z M113.6,52.4 L113.4,55.4 L113.2,55.4 L113.6,52.4 Z M115.3,42.9 L114.7,45.7 L114.2,48.7 C114.027232,49.9043801 113.82718,51.1046885 113.6,52.3 L114.1,47.1 L114.8,43.5 L115,42.8 L115.3,42.9 Z M116.5,31.9 C118.2,26.7 120.3,21.7 122.7,16.8 L123.2,16 L124,14.4 L124.3,14 L124.5,14 L123.3,16.1 C122.374144,18.365799 121.373597,20.600354 120.3,22.8 C116.396221,31.650388 113.769967,41.0106288 112.5,50.6 L112.8,47.8 C113.6,42.3 114.8,37 116.5,31.8 L116.5,31.9 Z M127.5,12.8 L128.7,11.1 C129.2,10.5 129.7,9.9 130,9.3 L130.3,9.5 C128.583799,11.8637521 127.07804,14.3733513 125.8,17 C123.309684,22.2089024 121.106388,27.5502273 119.2,33 L116.9,41.3 L116.5,41.3 L116.7,40.2 L116.9,39.2 C119.069729,29.9435229 122.644516,21.0740053 127.5,12.9 L127.5,12.8 Z M133.7,7.4 L134.7,6.7 L135.7,6 C136.2,5.6 136.5,5.7 136.7,6.3 C137.058737,7.31536821 137.359225,8.35038481 137.6,9.4 C137.849333,12.9398717 137.08629,16.4776156 135.4,19.6 C132.005517,26.354634 127.433993,32.4499987 121.9,37.6 L120.6,38.6 L119.2,39.7 L118.9,39.9 L118.6,39.8 C119.320743,37.6503431 119.987619,35.482999 120.6,33.3 C123.15833,25.4779979 126.579394,17.965073 130.8,10.9 C131.7,9.6 132.6,8.5 133.8,7.4 L133.7,7.4 Z M135.8,23.3 L135.7,23.3 L136.3,21.8 L137,20.5 L137.2,20.5 L135.9,23.3 L135.8,23.3 Z M99.6,65.5 L99.5,65 L99.5,64.6 C99.609,62.001 99.675,59.4 99.7,56.8 C100.196008,51.7503372 100.829576,46.7151337 101.6,41.7 L101.8,41.7 C101.5,45.7 101.1,49.7 100.5,53.6 C100,57.6 99.7,61.5 99.6,65.5 Z M98.9,54.7 C98.6104352,57.6919083 98.4436285,60.6944285 98.4,63.7 C98.2,63.3 98.1,62.3 98.1,60.7 C98.2145314,55.5158841 98.8510792,50.3564965 100,45.3 C99.6720279,48.4339014 99.3386941,51.5672393 99,54.7 L98.9,54.7 Z M99,63.4 L99,59.4 L99,63.4 Z M80.8,80.4 L80.4,77.8 L80.6,77.8 L81,80.4 L80.8,80.4 Z M87.8,26.5 L87.8,27.6 C87.5875817,30.2856121 87.220304,32.9567222 86.7,35.6 C85.254,42.59 83.854,49.59 82.5,56.6 C82.3,56.6 82.2,56.5 82.2,56.4 L87.8,26.5 Z M84,34 L85.3,27.4 L85.6,27.5 C84.73,31.86 83.897,36.226 83.1,40.6 L82.8,40.6 L84,34 Z M86.5,29.5 C85.716,33.536 84.916,37.57 84.1,41.6 L83.8,41.6 L86.2,29.5 L86.5,29.5 Z M65.5,49.4 L64.5,55.5 C64.8,51.4 65.2,47.2 65.8,43.2 L67.6,30.9 C67.5532606,35.0268148 67.1517821,39.1419698 66.4,43.2 L65.4,49.4 L65.5,49.4 Z M63.3,53.1 L65.8,33.8 L66.1,33.8 L63.5,53.1 L63.3,53.1 Z M62.5,50.8 L62.2,50.8 L64.9,30.5 C64.9,33.9 64.5,37.3 63.9,40.7 C63.3,44 62.9,47.4 62.5,50.8 Z M62,60.8 L61.8,60.8 L61.8,57.7 L62,57.7 L62,60.8 Z M47,51.4 L47,48 L47,48.1 L47.1,51.4 L47,51.4 Z M46.8,54.6 L46.8,52.7 L46.9,54.6 L46.8,54.6 Z M45.5,49.3 L45.4,49.3 L45.4,46.5 L45.5,46.5 L45.5,49.3 Z M45.3,53.4 L45.3,50.7 L45.3,53.4 Z M43.5,49.1 C43.3,54 43.2,58.9 43.3,63.8 C43.1,58.8 43,54 43.2,49.1 C43.3324097,44.1540008 43.9351257,39.2318199 45,34.4 C44.2009973,39.2648663 43.7000635,44.1740175 43.5,49.1 Z M4.9,44.3 C5.4,42.8 6.4,41.3 7.7,40.1 C6.72660704,41.4728757 5.79288793,42.8734543 4.9,44.3 Z M8.6,40.8 L6.3,44.1 L6.1,44.1 L8.3,40.6 L8.6,40.8 Z M12.2,38.6 C10.0186847,40.9096079 8.10645534,43.4592471 6.5,46.2 C7.5,43.2 9.4,40.6 12.2,38.6 Z M4.8,15.7 C4.8,15.4 5,15.1 5.2,14.7 C5.81035368,13.4184866 6.65874507,12.2646743 7.7,11.3 L4.8,15.7 Z M10.2,10.2 L6.7,14.9 C7.4,13.1 8.7,11.5 10.2,10.2 Z M10,12.6 C8.7243539,14.1438551 7.61802314,15.8201138 6.7,17.6 C7.32706361,15.646779 8.34810501,13.8429391 9.7,12.3 C11,10.8 12.5,9.5 14.3,8.3 C12.7,9.7 11.3,11.1 10,12.6 Z M29.4,7.3 L29.6,7.4 C29.1320788,8.25216556 28.6317126,9.08610929 28.1,9.9 L28.1,9.7 L29.4,7.3 Z M172.8,41.9 C171.381093,43.7524113 169.981021,45.6191741 168.6,47.5 L164.6,52.4 C162.354342,54.8438233 159.838193,57.0244855 157.1,58.9 C156.1,59.6 155,60.1 153.8,60.4 C153.2,60.6 152.8,60.6 152.4,60.5 C152.2,60.4 151.9,60 151.7,59.4 C151.4,58.4 151.2,57.4 151.2,56.5 C151.1,54.5 151.2,52.5 151.6,50.5 L152.9,44.5 C153.1,43.8 153.3,43.3 153.6,42.9 C153.9,42.5 154.4,42.3 155.2,42.3 L155.9,42 C159.7,40.6 163,38.3 165.8,35.2 C167.106392,33.8275304 167.946284,32.0777542 168.2,30.2 L168.2,27.6 C167.9,26.8 167.4,26.1 166.6,25.6 C165.8,25 164.9,24.6 164.1,24.4 C163.1,24.3 162.3,24.4 161.3,24.9 C159.517245,25.830898 157.923415,27.0856158 156.6,28.6 C153.1,32.5 150.6,36.9 148.9,41.9 L148.2,44.4 L145.3,50.6 C142.844341,55.6498152 140.106687,60.5575609 137.1,65.3 L136.5,65.8 L136.5,64.5 L136.8,61.9 L137.1,59.4 C137.547368,56.0790569 137.880897,52.7437696 138.1,49.4 L138.8,41 C138.8,40.5 138.8,40.1 138.6,40 L137.8,39.4 L137.2,38.9 C137,38.8 136.8,38.9 136.5,39.1 L136.5,39 L135.9,38.3 L135.6,38.4 L133.5,51 C132.809959,54.8949271 132.47525,58.8444974 132.5,62.8 L132.5,62.3 L132.6,57.3 C132.813409,53.3738499 133.281055,49.4656586 134,45.6 C134.41,43.207 134.777,40.807 135.1,38.4 L134.5,38.4 L134.1,39.1 L133.5,41.3 L132.5,46.6 L131.9,48.6 L128.4,57.4 C126.436977,62.3758235 124.536826,67.3762217 122.7,72.4 C122.2,73.5 121.7,74.7 121,75.7 C120.153502,77.0250598 119.320127,78.3584583 118.5,79.7 L118,78.9 C117.548911,77.9077882 117.115509,76.9076299 116.7,75.9 C115.855545,72.7032301 115.451812,69.4060732 115.5,66.1 C115.701737,60.4146271 116.168913,54.7417794 116.9,49.1 L117.7,44.4 C117.7,43.9 118,43.5 118.6,43.4 C119.8,42.8 121,42.2 122,41.4 L125,38.8 C131.846787,32.7260176 136.867535,24.8659504 139.5,16.1 C140,14.1 140.2,11.8 140,9.5 C139.904389,8.20362103 139.454715,6.95836912 138.7,5.9 C137.292926,3.94943409 134.78166,3.13934845 132.5,3.9 C131.5,4.2 130.5,4.8 129.6,5.5 C128.5,6.5 127.5,7.5 126.6,8.6 C123.761254,12.5336171 121.347753,16.7572441 119.4,21.2 C116.036212,29.1374849 113.554658,37.4205087 112,45.9 L109.7,50.6 C107.245846,55.6505999 104.508145,60.5584292 101.5,65.3 L101,65.8 L101,64.5 L101.2,61.9 C101.63214,57.6962356 102.098823,53.4960937 102.6,49.3 L103.2,41 C103.2,40.5 103.2,40.1 103,40 C102.9,39.8 102.6,39.6 102.2,39.4 L101.6,38.9 C101.5,38.8 101.2,38.9 100.9,39.1 L100.9,39 L100.4,38.3 L100,38.4 L98,51 C97.3094109,54.8948554 96.9746973,58.8444758 97,62.8 L97,62.3 L97.2,57.3 C97.2,55.6 97.2,53.9 97.5,52.3 C97.7509691,50.0551477 98.0845285,47.8202997 98.5,45.6 C98.943,43.207 99.343,40.807 99.7,38.4 L99,38.4 L98.6,39.1 C98.3444671,39.8170466 98.1438876,40.5525046 98,41.3 L97.2,46.1 L97.1,46.3 C95.4574069,50.3387125 93.7236298,54.3397367 91.9,58.3 C90.9,60.5 89.9,62.8 89,65.2 C86.9741773,69.9320565 84.6701515,74.5401079 82.1,79 L81.9,79 L81.9,74.2 C82.295,70.536 82.662,66.87 83,63.2 C84.0694818,55.3375062 85.504368,47.529056 87.3,39.8 C88.0669616,35.6834687 88.7338249,31.5489162 89.3,27.4 C89.3,26.2 89.3,25 89,23.7 C88.7550601,22.5550239 88.073489,21.5506035 87.1,20.9 C86.459657,20.4534325 85.6704564,20.2740687 84.9,20.4 C84.1189846,20.5634125 83.4352467,21.0312332 83,21.7 C80,26.1 77.2,30.6 74.7,35.2 C72.0151338,39.9862751 69.4805624,44.8553202 67.1,49.8 C67.74,44.63 68.406,39.463 69.1,34.3 C69.3,32.5 69.3,30.7 69.1,28.8 C68.9998117,27.5092927 68.4306799,26.2998877 67.5,25.4 C66.5842283,24.5553921 65.32722,24.1856838 64.1,24.4 C63.6292073,24.4824501 63.2035074,24.7307751 62.9,25.1 C62.1169893,26.1660591 61.3828966,27.2671981 60.7,28.4 L57.7,32.7 C56.7,34.2 55.9,35.7 55.1,37.2 C52.6430896,41.8438405 50.4398538,46.617518 48.5,51.5 L48.1,52.4 C48,52 47.9,51.8 48,51.7 C48.207,45.767 48.407,39.834 48.6,33.9 C48.5,33.7 48.3,33.6 48,33.6 C48,33.6 47.8,33.6 47.7,33.9 L47.5,34.5 C46.7420894,42.3517212 46.1752551,50.2207146 45.8,58.1 C45.3585237,49.902832 45.8618345,41.6820879 47.3,33.6 L47.2,33.2 L46.9,33.2 L46.8,33.4 L46.5,34.1 L45.8,38.1 L45.4,42.2 C44.9764335,46.4866858 44.7761628,50.7925047 44.8,55.1 C44.6716629,57.0979412 44.6716629,59.1020588 44.8,61.1 L44.4,61.1 L44.4,60.1 L44.6,53.4 C44.6812444,49.9315258 44.8145927,46.4644679 45,43 C45.2570827,39.8059732 45.7247665,36.6324046 46.4,33.5 C46.5,33.1 46.4,32.9 46.1,32.9 L44.9,32.9 L44.2,33.9 L44,34.6 L43.8,35.4 C43.2338106,37.6341776 42.8327285,39.9069764 42.6,42.2 L42.4,44.7 C39.4985031,50.047989 36.631776,55.4147688 33.8,60.8 C32.2934369,63.4671506 30.6235918,66.0387121 28.8,68.5 C26.1579508,72.0353379 22.8235109,74.995504 19,77.2 C17.8,77.8 16.6,78.2 15.3,78.5 C14.6,78.7 13.9,78.7 13.1,78.5 C12.3,78.5 11.6,78.1 10.9,77.7 C10.1,77.3 9.5,76.8 8.9,76.2 C8.3,75.6 7.9,74.9 7.6,74.2 C6.85969861,72.6150749 6.35438605,70.9306997 6.1,69.2 C5.59078878,65.5569374 5.42339327,61.8742362 5.6,58.2 L6.4,52.4 C6.77625465,50.1865368 7.4489705,48.0338461 8.4,46 C9.2901604,43.9332306 10.5817962,42.0637577 12.2,40.5 L14.5,38.5 C15.9301898,37.3168399 17.6614561,36.5550827 19.5,36.3 C20.5027331,36.1501681 21.5028746,35.9834779 22.5,35.8 L22.3,35.1 C22.1,34.7 22.2,34.5 22.6,34.3 L23.9,33.7 C24.3,33.4 24.4,33 24.1,32.7 C23.9,32.4 23.6,32.2 23.1,32.1 L21.9,32.1 L20.2,32.7 L17.8,33.1 C16.195,33.333 14.594,33.6 13,33.9 C12.0518205,33.9275068 11.1153785,33.6847256 10.3,33.2 C9.48274974,32.7468547 8.79443253,32.0929534 8.3,31.3 C6.91098939,28.7702728 6.41763414,25.845381 6.9,23 C7.5,19.2 8.9,16 10.9,13.5 C13.1,10.9 15.8,8.8 19.2,7.1 C20.2,6.6 21.4,6.1 22.6,5.9 C23.8,5.7 25,5.7 26.3,5.9 C26.7,6 26.8,6.1 26.8,6.2 L26.7,6.9 C25.871,9.168 25.038,11.435 24.2,13.7 C23.8,14.7 23.6,15.9 23.4,17.1 C23.2,18.2 23.1,19.4 23.2,20.5 C23.2,21.8 23.9,22.8 25.2,23.5 L25.8,23.5 L25.8,22.9 C25.806,21.967 25.806,21.033 25.8,20.1 C26.4467869,15.7981112 28.0531142,11.6968501 30.5,8.1 L30.9,7.3 C30.9,7.1 30.7,6.8 30.3,6.3 C30.0397735,5.75589187 29.6215849,5.30285424 29.1,5 L27.6,4.2 C26.3,3.4 25,2.9 23.6,2.5 C22.3925543,2.17028274 21.1234926,2.13598377 19.9,2.4 C18.7,2.6 17.5,3 16.3,3.4 C12.6668139,4.8291958 9.46365121,7.17129327 7,10.2 C4.94672735,12.5152931 3.41240859,15.2429709 2.5,18.2 C1.65442405,21.2083787 1.65442405,24.3916213 2.5,27.4 C2.97028676,29.303823 4.01822499,31.0154555 5.5,32.3 C7.03666574,33.8322188 8.92490544,34.9651626 11,35.6 L9.6,36.6 C6.95354113,38.590177 4.88299225,41.2473814 3.6,44.3 C3.1,45.5 2.6,46.7 2.3,47.8 L1.3,51.5 C0.484571283,54.7673898 0.14772627,58.1358399 0.3,61.5 C0.405634531,64.2232624 0.740147073,66.932814 1.3,69.6 C1.73504593,72.5416608 3.14336344,75.252672 5.3,77.3 C7.5468273,79.144911 10.3026059,80.2611757 13.2,80.5 C15.5,80.8 17.6,80.5 19.5,79.7 C24.2127028,77.4135721 28.2715623,73.9738607 31.3,69.7 C33.1472275,67.1505266 34.8177978,64.4776142 36.3,61.7 L39.8,55.1 L42.1,50.8 C42.0622024,55.305249 42.2290409,59.8098902 42.6,64.3 L42.8,65 C42.8,65.3 43,65.4 43.1,65.5 L44.3,65.7 C44.7327404,65.7 45.1538077,65.5596443 45.5,65.3 L45.8,65.2 C46.4,65.3 46.8,65.1 46.9,64.5 C47.1122559,63.3545495 47.3792282,62.2199174 47.7,61.1 C50.4870948,52.4541603 54.0690632,44.0850753 58.4,36.1 C59.7521882,33.8735428 61.2910532,31.7659668 63,29.8 L63.3,29.5 L63.6,29.2 L63.6,29.6 C62.9295139,34.7582374 62.3294581,39.9253852 61.8,45.1 C61.4776927,47.9946142 61.210977,50.8951485 61,53.8 C60.907,55.9 60.84,58 60.8,60.1 C60.954,60.936 61.12,61.77 61.3,62.6 L61.6,62.8 C62.7669726,62.635482 63.9336413,62.468815 65.1,62.3 L65.2,62 L68.6,53.9 C72.88926,43.6878306 78.1465887,33.9098689 84.3,24.7 L84.5,24.7 L84.3,26.3 L82.2,37.3 C81.4422564,41.6475286 80.6087965,45.9815201 79.7,50.3 L78.3,59.3 C77.3387364,65.9258979 77.2379011,72.6482517 78,79.3 L78.6,81.3 C78.9,82 79.5,82.3 80.4,82.2 C81.7893093,82.0406676 83.0355149,81.2709524 83.8,80.1 C84.2622546,79.1469318 84.7626591,78.2128434 85.3,77.3 C87.4548462,72.4761906 89.5882007,67.6428094 91.7,62.8 L96,53.1 C95.6326725,56.0857734 95.5656707,59.1008564 95.8,62.1 C96.158,63.436 96.525,64.77 96.9,66.1 C97.4,67.1 98.2,67.8 99.3,67.9 C100.1,67.9 100.7,67.9 101.3,67.7 C102,67.5 102.5,67.1 103,66.5 C103.520633,65.7469892 104.020816,64.9800424 104.5,64.2 L110,53.2 L111.3,50.5 L110.8,56.7 C110.8,58.7 110.6,60.9 110.4,63 L110.7,68.4 C110.971487,71.4743574 111.643855,74.5000111 112.7,77.4 C113.171209,78.5173412 113.849842,79.5352915 114.7,80.4 C115.1,81 115.7,81.3 116.3,81.4 C117.381569,81.6237573 118.506789,81.4831048 119.5,81 C120.5,80.5 121.3,79.8 121.9,78.7 C122.822972,77.0952015 123.625189,75.423916 124.3,73.7 C125.916,69.631 127.45,65.53 128.9,61.4 L131.4,54.4 L131.1,57.5 C131.029991,59.7546862 131.265462,62.0084754 131.8,64.2 L132.5,66.1 C133,67.1 133.8,67.8 134.9,67.9 C135.6,67.9 136.3,67.9 136.9,67.7 C137.5,67.5 138.1,67.1 138.6,66.5 C139.120633,65.7469892 139.620816,64.9800424 140.1,64.2 L146.9,50.9 L146.9,55.4 C147.1,57.2 147.6,58.7 148.3,59.6 C149.1,60.6 150.3,61.2 151.7,61.6 C152.9,62.1 154,62.1 155,61.8 C156,61.5 157,61 158,60.4 C160.891638,58.5303038 163.48707,56.2382339 165.7,53.6 C169.058759,49.7156378 172.101776,45.5691097 174.8,41.2 C174.1,40.9 173.7,40.8 173.5,40.9 L172.8,41.8 L172.8,41.9 Z M253.4,76.2 C253.407416,75.5984289 253.374006,74.9970477 253.3,74.4 L253.6,74.3 L253.7,76.2 L253.4,76.2 Z M257,44.2 C258.542282,36.0416728 260.209143,27.9073898 262,19.8 C260.6,28 259,36.1 257.5,44.3 C255.863993,52.4767546 254.562907,60.7169664 253.6,69 C254.363062,60.6867816 255.497529,52.4118479 257,44.2 Z M259.4,26.9 L255.4,48.6 L255.2,48.6 L257.2,37.7 C257.8,34.1 258.5,30.5 259.4,26.9 Z M254.8,43.6 C255.317011,40.0731452 255.984284,36.5699586 256.8,33.1 C257.749377,28.5223949 258.749438,23.955448 259.8,19.4 C258.104083,27.4605955 256.437405,35.5273152 254.8,43.6 Z M232.5,37.6 L232.3,37.6 L233,31.8 L233.2,31.8 L232.6,37.6 L232.5,37.6 Z M229.8,42.4 C229.710743,43.0017412 229.610727,43.6018372 229.5,44.2 L229.7,40.4 L229.9,40.4 L229.8,42.4 Z M271.8,40.4 C271.8,40.2 271.8,40 271.4,39.7 C271,39.6 270.7,39.5 270.4,39.6 C269.9,39.6 269.7,39.9 269.5,40.1 L268.5,42.2 L265.5,48.8 C261.746941,56.6453074 258.343599,64.653172 255.3,72.8 L255,73.4 C254.874097,73.3055728 254.8,73.1573787 254.8,73 L255.2,69 L255.9,63 C256.4229,57.3852227 257.291211,51.8079922 258.5,46.3 C259.942456,38.9748357 261.34248,31.6413794 262.7,24.3 C263.801136,19.3751279 264.37106,14.3463877 264.4,9.3 C264.420774,8.05484405 264.286407,6.81194717 264,5.6 C263.875257,4.66688339 263.532691,3.77621364 263,3 C262.0348,1.71240585 260.508878,0.968053879 258.9,1 C258,1 257.2,1.1 256.4,1.5 C254.8,2.2 253.4,3.1 252.2,4.1 C250.950702,5.14812607 249.811482,6.32085237 248.8,7.6 C246.671652,10.3085958 244.765459,13.1846055 243.1,16.2 C240.159991,21.5938157 237.359067,27.0622872 234.7,32.6 L234.6,32.6 L234.6,31.8 C234.912,29.53 235.246,27.264 235.6,25 C235.82,21.77 235.987,18.536 236.1,15.3 C236.1,14.3 236.1,13.3 235.8,12.3 C235.5,11.3 235,10.3 234.2,9.5 C232.5,7.7 230.8,7.6 229.2,9.3 C227.9,10.3 226.8,11.5 225.8,12.7 C220.420199,19.9791902 216.0474,27.9511385 212.8,36.4 L212.4,37.6 C212.3,37.1 212.2,36.8 212.3,36.5 L213,30.9 L213.9,25.2 C214.6024,20.9156099 215.402609,16.6478294 216.3,12.4 C216.5,11.4 216.5,10.9 216.3,10.4 C215.882259,9.90681006 215.37286,9.49929068 214.8,9.2 C214.398728,9.10515825 213.998695,9.00514995 213.6,8.9 C213.230938,9.1366411 212.949856,9.48799373 212.8,9.9 C211.786639,13.51558 210.719855,17.1159738 209.6,20.7 C206.94748,30.7030153 206.034182,41.0875543 206.9,51.4 C206.9,51.8 207.1,52.1 207.3,52.3 L208.1,52.7 L209.4,52.7 C210,53.2 210.4,53 210.4,52.3 L210.9,50.4 L211.5,48.6 C214.970278,36.8802766 220.196255,25.7540038 227,15.6 C228.197778,13.8637295 229.608813,12.2847141 231.2,10.9 L231.7,10.6 L231.9,11.2 C232,11.3 232.1,11.5 232,11.8 L231.6,17 C231.327367,20.4185575 230.893551,23.8223438 230.3,27.2 C229.552729,30.9602575 229.084784,34.7706651 228.9,38.6 C228.728,41.6 228.561,44.6 228.4,47.6 L228.5,48.4 C228.6,48.6 228.9,48.8 229.3,48.9 L230.3,48.9 L230.8,48.7 L231,48.3 L231.5,46.7 L231.5,47.7 L231.3,48.6 L231.3,48.9 L231.6,49.1 L232,49.1 L232.3,48.8 L232.5,48.2 C232.713218,47.3429372 232.880127,46.4750138 233,45.6 L233.5,43.6 C234.2403,41.0645482 235.17645,38.5904383 236.3,36.2 L239.8,29.1 C242.032619,24.5404318 244.502674,20.1010095 247.2,15.8 C249.069452,12.5710611 251.282292,9.55355133 253.8,6.8 C255.29441,5.28710766 257.0579,4.06622998 259,3.2 C259.5,3 259.9,2.9 260,3 C260.2,3.1 260.3,3.5 260.4,4 L260.5,5.3 L260.5,6.6 C259.817423,10.6588447 259.184043,14.7258098 258.6,18.8 C258.1,21.8 257.5,24.8 256.8,27.7 C255.274154,34.3764577 254.039652,41.1161702 253.1,47.9 L251.3,59.3 C250.66351,64.0395138 250.362761,68.8180837 250.4,73.6 L250.5,75.9 C250.6,76.7 250.9,77.4 251.2,78.1 C251.3,78.5 251.5,78.8 251.8,78.9 C252,79.1 252.3,79.2 252.8,79.1 C254.7,79.1 256,78.1 256.8,76.1 L258.5,72.3 C261.001786,66.8914715 263.205094,61.349818 265.1,55.7 C267.086217,50.7701607 269.220519,45.901285 271.5,41.1 L271.8,40.4 Z M276.9,59.2 C276.112455,58.2817966 275.204204,57.474462 274.2,56.8 C273.1,56.1 272.1,56.2 271.2,57.1 L270.4,58.5 C270.119807,58.9854901 269.981237,59.5397707 270,60.1 L270.1,60.7 C270.1,60.9 270.1,61.1 270.3,61.3 C270.5,61.9 271,62.4 271.5,62.8 C272.1,63.2 272.7,63.4 273.3,63.5 C273.9,63.5 274.6,63.5 275.3,63.2 C275.9,63 276.4,62.6 276.9,62.1 C277.7,61.1 277.7,60.1 276.9,59.2 Z" id="Shape" fill="#333333"></path>
            </g>
        </g>
    </g>
</svg>